<?xml version="1.0" standalone="no"?>
<svg xmlns="http://www.w3.org/2000/svg" width="1024" height="1024" viewBox="0 0 1024 1024"><defs><clipPath id="clip-path-dot-color"><rect x="66" y="309" width="27" height="27" transform="rotate(0,79.5,322.5)"/><rect x="66" y="336" width="27" height="27" transform="rotate(0,79.5,349.5)"/><rect x="66" y="417" width="27" height="27" transform="rotate(0,79.5,430.5)"/><rect x="66" y="444" width="27" height="27" transform="rotate(0,79.5,457.5)"/><rect x="66" y="525" width="27" height="27" transform="rotate(0,79.5,538.5)"/><rect x="66" y="606" width="27" height="27" transform="rotate(0,79.5,619.5)"/><rect x="66" y="633" width="27" height="27" transform="rotate(0,79.5,646.5)"/><rect x="66" y="714" width="27" height="27" transform="rotate(0,79.5,727.5)"/><rect x="93" y="282" width="27" height="27" transform="rotate(0,106.5,295.5)"/><rect x="93" y="309" width="27" height="27" transform="rotate(0,106.5,322.5)"/><rect x="93" y="336" width="27" height="27" transform="rotate(0,106.5,349.5)"/><rect x="93" y="471" width="27" height="27" transform="rotate(0,106.5,484.5)"/><rect x="93" y="498" width="27" height="27" transform="rotate(0,106.5,511.5)"/><rect x="93" y="552" width="27" height="27" transform="rotate(0,106.5,565.5)"/><rect x="93" y="579" width="27" height="27" transform="rotate(0,106.5,592.5)"/><rect x="93" y="660" width="27" height="27" transform="rotate(0,106.5,673.5)"/><rect x="93" y="714" width="27" height="27" transform="rotate(0,106.5,727.5)"/><rect x="120" y="417" width="27" height="27" transform="rotate(0,133.5,430.5)"/><rect x="120" y="444" width="27" height="27" transform="rotate(0,133.5,457.5)"/><rect x="120" y="471" width="27" height="27" transform="rotate(0,133.5,484.5)"/><rect x="120" y="498" width="27" height="27" transform="rotate(0,133.5,511.5)"/><rect x="120" y="579" width="27" height="27" transform="rotate(0,133.5,592.5)"/><rect x="120" y="633" width="27" height="27" transform="rotate(0,133.5,646.5)"/><rect x="120" y="660" width="27" height="27" transform="rotate(0,133.5,673.5)"/><rect x="147" y="282" width="27" height="27" transform="rotate(0,160.5,295.5)"/><rect x="147" y="417" width="27" height="27" transform="rotate(0,160.5,430.5)"/><rect x="147" y="444" width="27" height="27" transform="rotate(0,160.5,457.5)"/><rect x="147" y="552" width="27" height="27" transform="rotate(0,160.5,565.5)"/><rect x="147" y="579" width="27" height="27" transform="rotate(0,160.5,592.5)"/><rect x="147" y="606" width="27" height="27" transform="rotate(0,160.5,619.5)"/><rect x="147" y="633" width="27" height="27" transform="rotate(0,160.5,646.5)"/><rect x="147" y="660" width="27" height="27" transform="rotate(0,160.5,673.5)"/><rect x="147" y="714" width="27" height="27" transform="rotate(0,160.5,727.5)"/><rect x="174" y="282" width="27" height="27" transform="rotate(0,187.5,295.5)"/><rect x="174" y="336" width="27" height="27" transform="rotate(0,187.5,349.5)"/><rect x="174" y="417" width="27" height="27" transform="rotate(0,187.5,430.5)"/><rect x="174" y="444" width="27" height="27" transform="rotate(0,187.5,457.5)"/><rect x="174" y="498" width="27" height="27" transform="rotate(0,187.5,511.5)"/><rect x="174" y="660" width="27" height="27" transform="rotate(0,187.5,673.5)"/><rect x="201" y="336" width="27" height="27" transform="rotate(0,214.5,349.5)"/><rect x="201" y="417" width="27" height="27" transform="rotate(0,214.5,430.5)"/><rect x="201" y="444" width="27" height="27" transform="rotate(0,214.5,457.5)"/><rect x="201" y="471" width="27" height="27" transform="rotate(0,214.5,484.5)"/><rect x="201" y="498" width="27" height="27" transform="rotate(0,214.5,511.5)"/><rect x="201" y="525" width="27" height="27" transform="rotate(0,214.5,538.5)"/><rect x="201" y="552" width="27" height="27" transform="rotate(0,214.5,565.5)"/><rect x="201" y="579" width="27" height="27" transform="rotate(0,214.5,592.5)"/><rect x="201" y="660" width="27" height="27" transform="rotate(0,214.5,673.5)"/><rect x="201" y="687" width="27" height="27" transform="rotate(0,214.5,700.5)"/><rect x="201" y="714" width="27" height="27" transform="rotate(0,214.5,727.5)"/><rect x="228" y="282" width="27" height="27" transform="rotate(0,241.5,295.5)"/><rect x="228" y="336" width="27" height="27" transform="rotate(0,241.5,349.5)"/><rect x="228" y="390" width="27" height="27" transform="rotate(0,241.5,403.5)"/><rect x="228" y="444" width="27" height="27" transform="rotate(0,241.5,457.5)"/><rect x="228" y="498" width="27" height="27" transform="rotate(0,241.5,511.5)"/><rect x="228" y="552" width="27" height="27" transform="rotate(0,241.5,565.5)"/><rect x="228" y="606" width="27" height="27" transform="rotate(0,241.5,619.5)"/><rect x="228" y="660" width="27" height="27" transform="rotate(0,241.5,673.5)"/><rect x="228" y="714" width="27" height="27" transform="rotate(0,241.5,727.5)"/><rect x="255" y="282" width="27" height="27" transform="rotate(0,268.5,295.5)"/><rect x="255" y="309" width="27" height="27" transform="rotate(0,268.5,322.5)"/><rect x="255" y="336" width="27" height="27" transform="rotate(0,268.5,349.5)"/><rect x="255" y="390" width="27" height="27" transform="rotate(0,268.5,403.5)"/><rect x="255" y="444" width="27" height="27" transform="rotate(0,268.5,457.5)"/><rect x="255" y="471" width="27" height="27" transform="rotate(0,268.5,484.5)"/><rect x="255" y="498" width="27" height="27" transform="rotate(0,268.5,511.5)"/><rect x="255" y="687" width="27" height="27" transform="rotate(0,268.5,700.5)"/><rect x="282" y="93" width="27" height="27" transform="rotate(0,295.5,106.5)"/><rect x="282" y="147" width="27" height="27" transform="rotate(0,295.5,160.5)"/><rect x="282" y="174" width="27" height="27" transform="rotate(0,295.5,187.5)"/><rect x="282" y="201" width="27" height="27" transform="rotate(0,295.5,214.5)"/><rect x="282" y="228" width="27" height="27" transform="rotate(0,295.5,241.5)"/><rect x="282" y="282" width="27" height="27" transform="rotate(0,295.5,295.5)"/><rect x="282" y="309" width="27" height="27" transform="rotate(0,295.5,322.5)"/><rect x="282" y="336" width="27" height="27" transform="rotate(0,295.5,349.5)"/><rect x="282" y="363" width="27" height="27" transform="rotate(0,295.5,376.5)"/><rect x="282" y="417" width="27" height="27" transform="rotate(0,295.5,430.5)"/><rect x="282" y="525" width="27" height="27" transform="rotate(0,295.5,538.5)"/><rect x="282" y="552" width="27" height="27" transform="rotate(0,295.5,565.5)"/><rect x="282" y="606" width="27" height="27" transform="rotate(0,295.5,619.5)"/><rect x="282" y="741" width="27" height="27" transform="rotate(0,295.5,754.5)"/><rect x="282" y="768" width="27" height="27" transform="rotate(0,295.5,781.5)"/><rect x="282" y="822" width="27" height="27" transform="rotate(0,295.5,835.5)"/><rect x="282" y="849" width="27" height="27" transform="rotate(0,295.5,862.5)"/><rect x="282" y="903" width="27" height="27" transform="rotate(0,295.5,916.5)"/><rect x="309" y="93" width="27" height="27" transform="rotate(0,322.5,106.5)"/><rect x="309" y="147" width="27" height="27" transform="rotate(0,322.5,160.5)"/><rect x="309" y="201" width="27" height="27" transform="rotate(0,322.5,214.5)"/><rect x="309" y="255" width="27" height="27" transform="rotate(0,322.5,268.5)"/><rect x="309" y="282" width="27" height="27" transform="rotate(0,322.5,295.5)"/><rect x="309" y="444" width="27" height="27" transform="rotate(0,322.5,457.5)"/><rect x="309" y="471" width="27" height="27" transform="rotate(0,322.5,484.5)"/><rect x="309" y="498" width="27" height="27" transform="rotate(0,322.5,511.5)"/><rect x="309" y="525" width="27" height="27" transform="rotate(0,322.5,538.5)"/><rect x="309" y="579" width="27" height="27" transform="rotate(0,322.5,592.5)"/><rect x="309" y="606" width="27" height="27" transform="rotate(0,322.5,619.5)"/><rect x="309" y="660" width="27" height="27" transform="rotate(0,322.5,673.5)"/><rect x="309" y="687" width="27" height="27" transform="rotate(0,322.5,700.5)"/><rect x="309" y="714" width="27" height="27" transform="rotate(0,322.5,727.5)"/><rect x="309" y="795" width="27" height="27" transform="rotate(0,322.5,808.5)"/><rect x="309" y="822" width="27" height="27" transform="rotate(0,322.5,835.5)"/><rect x="336" y="120" width="27" height="27" transform="rotate(0,349.5,133.5)"/><rect x="336" y="147" width="27" height="27" transform="rotate(0,349.5,160.5)"/><rect x="336" y="228" width="27" height="27" transform="rotate(0,349.5,241.5)"/><rect x="336" y="255" width="27" height="27" transform="rotate(0,349.5,268.5)"/><rect x="336" y="309" width="27" height="27" transform="rotate(0,349.5,322.5)"/><rect x="336" y="336" width="27" height="27" transform="rotate(0,349.5,349.5)"/><rect x="336" y="390" width="27" height="27" transform="rotate(0,349.5,403.5)"/><rect x="336" y="417" width="27" height="27" transform="rotate(0,349.5,430.5)"/><rect x="336" y="660" width="27" height="27" transform="rotate(0,349.5,673.5)"/><rect x="336" y="687" width="27" height="27" transform="rotate(0,349.5,700.5)"/><rect x="336" y="741" width="27" height="27" transform="rotate(0,349.5,754.5)"/><rect x="336" y="768" width="27" height="27" transform="rotate(0,349.5,781.5)"/><rect x="336" y="903" width="27" height="27" transform="rotate(0,349.5,916.5)"/><rect x="336" y="930" width="27" height="27" transform="rotate(0,349.5,943.5)"/><rect x="363" y="120" width="27" height="27" transform="rotate(0,376.5,133.5)"/><rect x="363" y="147" width="27" height="27" transform="rotate(0,376.5,160.5)"/><rect x="363" y="390" width="27" height="27" transform="rotate(0,376.5,403.5)"/><rect x="363" y="417" width="27" height="27" transform="rotate(0,376.5,430.5)"/><rect x="363" y="444" width="27" height="27" transform="rotate(0,376.5,457.5)"/><rect x="363" y="471" width="27" height="27" transform="rotate(0,376.5,484.5)"/><rect x="363" y="552" width="27" height="27" transform="rotate(0,376.5,565.5)"/><rect x="363" y="579" width="27" height="27" transform="rotate(0,376.5,592.5)"/><rect x="363" y="660" width="27" height="27" transform="rotate(0,376.5,673.5)"/><rect x="363" y="687" width="27" height="27" transform="rotate(0,376.5,700.5)"/><rect x="363" y="714" width="27" height="27" transform="rotate(0,376.5,727.5)"/><rect x="363" y="768" width="27" height="27" transform="rotate(0,376.5,781.5)"/><rect x="363" y="822" width="27" height="27" transform="rotate(0,376.5,835.5)"/><rect x="363" y="876" width="27" height="27" transform="rotate(0,376.5,889.5)"/><rect x="390" y="93" width="27" height="27" transform="rotate(0,403.5,106.5)"/><rect x="390" y="174" width="27" height="27" transform="rotate(0,403.5,187.5)"/><rect x="390" y="228" width="27" height="27" transform="rotate(0,403.5,241.5)"/><rect x="390" y="255" width="27" height="27" transform="rotate(0,403.5,268.5)"/><rect x="390" y="336" width="27" height="27" transform="rotate(0,403.5,349.5)"/><rect x="390" y="390" width="27" height="27" transform="rotate(0,403.5,403.5)"/><rect x="390" y="417" width="27" height="27" transform="rotate(0,403.5,430.5)"/><rect x="390" y="444" width="27" height="27" transform="rotate(0,403.5,457.5)"/><rect x="390" y="471" width="27" height="27" transform="rotate(0,403.5,484.5)"/><rect x="390" y="498" width="27" height="27" transform="rotate(0,403.5,511.5)"/><rect x="390" y="525" width="27" height="27" transform="rotate(0,403.5,538.5)"/><rect x="390" y="579" width="27" height="27" transform="rotate(0,403.5,592.5)"/><rect x="390" y="606" width="27" height="27" transform="rotate(0,403.5,619.5)"/><rect x="390" y="660" width="27" height="27" transform="rotate(0,403.5,673.5)"/><rect x="390" y="687" width="27" height="27" transform="rotate(0,403.5,700.5)"/><rect x="390" y="714" width="27" height="27" transform="rotate(0,403.5,727.5)"/><rect x="390" y="741" width="27" height="27" transform="rotate(0,403.5,754.5)"/><rect x="390" y="768" width="27" height="27" transform="rotate(0,403.5,781.5)"/><rect x="390" y="795" width="27" height="27" transform="rotate(0,403.5,808.5)"/><rect x="390" y="849" width="27" height="27" transform="rotate(0,403.5,862.5)"/><rect x="390" y="876" width="27" height="27" transform="rotate(0,403.5,889.5)"/><rect x="390" y="903" width="27" height="27" transform="rotate(0,403.5,916.5)"/><rect x="417" y="120" width="27" height="27" transform="rotate(0,430.5,133.5)"/><rect x="417" y="147" width="27" height="27" transform="rotate(0,430.5,160.5)"/><rect x="417" y="174" width="27" height="27" transform="rotate(0,430.5,187.5)"/><rect x="417" y="282" width="27" height="27" transform="rotate(0,430.5,295.5)"/><rect x="417" y="309" width="27" height="27" transform="rotate(0,430.5,322.5)"/><rect x="417" y="552" width="27" height="27" transform="rotate(0,430.5,565.5)"/><rect x="417" y="579" width="27" height="27" transform="rotate(0,430.5,592.5)"/><rect x="417" y="606" width="27" height="27" transform="rotate(0,430.5,619.5)"/><rect x="417" y="660" width="27" height="27" transform="rotate(0,430.5,673.5)"/><rect x="417" y="687" width="27" height="27" transform="rotate(0,430.5,700.5)"/><rect x="417" y="795" width="27" height="27" transform="rotate(0,430.5,808.5)"/><rect x="417" y="876" width="27" height="27" transform="rotate(0,430.5,889.5)"/><rect x="417" y="903" width="27" height="27" transform="rotate(0,430.5,916.5)"/><rect x="417" y="930" width="27" height="27" transform="rotate(0,430.5,943.5)"/><rect x="444" y="66" width="27" height="27" transform="rotate(0,457.5,79.5)"/><rect x="444" y="93" width="27" height="27" transform="rotate(0,457.5,106.5)"/><rect x="444" y="120" width="27" height="27" transform="rotate(0,457.5,133.5)"/><rect x="444" y="174" width="27" height="27" transform="rotate(0,457.5,187.5)"/><rect x="444" y="228" width="27" height="27" transform="rotate(0,457.5,241.5)"/><rect x="444" y="255" width="27" height="27" transform="rotate(0,457.5,268.5)"/><rect x="444" y="282" width="27" height="27" transform="rotate(0,457.5,295.5)"/><rect x="444" y="309" width="27" height="27" transform="rotate(0,457.5,322.5)"/><rect x="444" y="336" width="27" height="27" transform="rotate(0,457.5,349.5)"/><rect x="444" y="417" width="27" height="27" transform="rotate(0,457.5,430.5)"/><rect x="444" y="444" width="27" height="27" transform="rotate(0,457.5,457.5)"/><rect x="444" y="471" width="27" height="27" transform="rotate(0,457.5,484.5)"/><rect x="444" y="498" width="27" height="27" transform="rotate(0,457.5,511.5)"/><rect x="444" y="525" width="27" height="27" transform="rotate(0,457.5,538.5)"/><rect x="444" y="579" width="27" height="27" transform="rotate(0,457.5,592.5)"/><rect x="444" y="660" width="27" height="27" transform="rotate(0,457.5,673.5)"/><rect x="444" y="822" width="27" height="27" transform="rotate(0,457.5,835.5)"/><rect x="471" y="174" width="27" height="27" transform="rotate(0,484.5,187.5)"/><rect x="471" y="255" width="27" height="27" transform="rotate(0,484.5,268.5)"/><rect x="471" y="336" width="27" height="27" transform="rotate(0,484.5,349.5)"/><rect x="471" y="363" width="27" height="27" transform="rotate(0,484.5,376.5)"/><rect x="471" y="417" width="27" height="27" transform="rotate(0,484.5,430.5)"/><rect x="471" y="471" width="27" height="27" transform="rotate(0,484.5,484.5)"/><rect x="471" y="525" width="27" height="27" transform="rotate(0,484.5,538.5)"/><rect x="471" y="552" width="27" height="27" transform="rotate(0,484.5,565.5)"/><rect x="471" y="822" width="27" height="27" transform="rotate(0,484.5,835.5)"/><rect x="471" y="876" width="27" height="27" transform="rotate(0,484.5,889.5)"/><rect x="471" y="930" width="27" height="27" transform="rotate(0,484.5,943.5)"/><rect x="498" y="66" width="27" height="27" transform="rotate(0,511.5,79.5)"/><rect x="498" y="93" width="27" height="27" transform="rotate(0,511.5,106.5)"/><rect x="498" y="147" width="27" height="27" transform="rotate(0,511.5,160.5)"/><rect x="498" y="201" width="27" height="27" transform="rotate(0,511.5,214.5)"/><rect x="498" y="228" width="27" height="27" transform="rotate(0,511.5,241.5)"/><rect x="498" y="282" width="27" height="27" transform="rotate(0,511.5,295.5)"/><rect x="498" y="363" width="27" height="27" transform="rotate(0,511.5,376.5)"/><rect x="498" y="390" width="27" height="27" transform="rotate(0,511.5,403.5)"/><rect x="498" y="471" width="27" height="27" transform="rotate(0,511.5,484.5)"/><rect x="498" y="498" width="27" height="27" transform="rotate(0,511.5,511.5)"/><rect x="498" y="525" width="27" height="27" transform="rotate(0,511.5,538.5)"/><rect x="498" y="552" width="27" height="27" transform="rotate(0,511.5,565.5)"/><rect x="498" y="606" width="27" height="27" transform="rotate(0,511.5,619.5)"/><rect x="498" y="660" width="27" height="27" transform="rotate(0,511.5,673.5)"/><rect x="498" y="687" width="27" height="27" transform="rotate(0,511.5,700.5)"/><rect x="498" y="741" width="27" height="27" transform="rotate(0,511.5,754.5)"/><rect x="498" y="768" width="27" height="27" transform="rotate(0,511.5,781.5)"/><rect x="498" y="822" width="27" height="27" transform="rotate(0,511.5,835.5)"/><rect x="525" y="147" width="27" height="27" transform="rotate(0,538.5,160.5)"/><rect x="525" y="255" width="27" height="27" transform="rotate(0,538.5,268.5)"/><rect x="525" y="282" width="27" height="27" transform="rotate(0,538.5,295.5)"/><rect x="525" y="309" width="27" height="27" transform="rotate(0,538.5,322.5)"/><rect x="525" y="336" width="27" height="27" transform="rotate(0,538.5,349.5)"/><rect x="525" y="363" width="27" height="27" transform="rotate(0,538.5,376.5)"/><rect x="525" y="417" width="27" height="27" transform="rotate(0,538.5,430.5)"/><rect x="525" y="471" width="27" height="27" transform="rotate(0,538.5,484.5)"/><rect x="525" y="498" width="27" height="27" transform="rotate(0,538.5,511.5)"/><rect x="525" y="525" width="27" height="27" transform="rotate(0,538.5,538.5)"/><rect x="525" y="579" width="27" height="27" transform="rotate(0,538.5,592.5)"/><rect x="525" y="606" width="27" height="27" transform="rotate(0,538.5,619.5)"/><rect x="525" y="633" width="27" height="27" transform="rotate(0,538.5,646.5)"/><rect x="525" y="660" width="27" height="27" transform="rotate(0,538.5,673.5)"/><rect x="525" y="714" width="27" height="27" transform="rotate(0,538.5,727.5)"/><rect x="525" y="768" width="27" height="27" transform="rotate(0,538.5,781.5)"/><rect x="525" y="822" width="27" height="27" transform="rotate(0,538.5,835.5)"/><rect x="525" y="903" width="27" height="27" transform="rotate(0,538.5,916.5)"/><rect x="525" y="930" width="27" height="27" transform="rotate(0,538.5,943.5)"/><rect x="552" y="66" width="27" height="27" transform="rotate(0,565.5,79.5)"/><rect x="552" y="147" width="27" height="27" transform="rotate(0,565.5,160.5)"/><rect x="552" y="228" width="27" height="27" transform="rotate(0,565.5,241.5)"/><rect x="552" y="255" width="27" height="27" transform="rotate(0,565.5,268.5)"/><rect x="552" y="363" width="27" height="27" transform="rotate(0,565.5,376.5)"/><rect x="552" y="390" width="27" height="27" transform="rotate(0,565.5,403.5)"/><rect x="552" y="471" width="27" height="27" transform="rotate(0,565.5,484.5)"/><rect x="552" y="552" width="27" height="27" transform="rotate(0,565.5,565.5)"/><rect x="552" y="579" width="27" height="27" transform="rotate(0,565.5,592.5)"/><rect x="552" y="633" width="27" height="27" transform="rotate(0,565.5,646.5)"/><rect x="552" y="660" width="27" height="27" transform="rotate(0,565.5,673.5)"/><rect x="552" y="687" width="27" height="27" transform="rotate(0,565.5,700.5)"/><rect x="552" y="714" width="27" height="27" transform="rotate(0,565.5,727.5)"/><rect x="552" y="741" width="27" height="27" transform="rotate(0,565.5,754.5)"/><rect x="552" y="768" width="27" height="27" transform="rotate(0,565.5,781.5)"/><rect x="552" y="795" width="27" height="27" transform="rotate(0,565.5,808.5)"/><rect x="552" y="822" width="27" height="27" transform="rotate(0,565.5,835.5)"/><rect x="552" y="903" width="27" height="27" transform="rotate(0,565.5,916.5)"/><rect x="552" y="930" width="27" height="27" transform="rotate(0,565.5,943.5)"/><rect x="579" y="93" width="27" height="27" transform="rotate(0,592.5,106.5)"/><rect x="579" y="120" width="27" height="27" transform="rotate(0,592.5,133.5)"/><rect x="579" y="147" width="27" height="27" transform="rotate(0,592.5,160.5)"/><rect x="579" y="282" width="27" height="27" transform="rotate(0,592.5,295.5)"/><rect x="579" y="309" width="27" height="27" transform="rotate(0,592.5,322.5)"/><rect x="579" y="336" width="27" height="27" transform="rotate(0,592.5,349.5)"/><rect x="579" y="363" width="27" height="27" transform="rotate(0,592.5,376.5)"/><rect x="579" y="498" width="27" height="27" transform="rotate(0,592.5,511.5)"/><rect x="579" y="660" width="27" height="27" transform="rotate(0,592.5,673.5)"/><rect x="579" y="687" width="27" height="27" transform="rotate(0,592.5,700.5)"/><rect x="579" y="741" width="27" height="27" transform="rotate(0,592.5,754.5)"/><rect x="579" y="768" width="27" height="27" transform="rotate(0,592.5,781.5)"/><rect x="579" y="876" width="27" height="27" transform="rotate(0,592.5,889.5)"/><rect x="579" y="930" width="27" height="27" transform="rotate(0,592.5,943.5)"/><rect x="606" y="120" width="27" height="27" transform="rotate(0,619.5,133.5)"/><rect x="606" y="174" width="27" height="27" transform="rotate(0,619.5,187.5)"/><rect x="606" y="228" width="27" height="27" transform="rotate(0,619.5,241.5)"/><rect x="606" y="255" width="27" height="27" transform="rotate(0,619.5,268.5)"/><rect x="606" y="282" width="27" height="27" transform="rotate(0,619.5,295.5)"/><rect x="606" y="309" width="27" height="27" transform="rotate(0,619.5,322.5)"/><rect x="606" y="336" width="27" height="27" transform="rotate(0,619.5,349.5)"/><rect x="606" y="363" width="27" height="27" transform="rotate(0,619.5,376.5)"/><rect x="606" y="390" width="27" height="27" transform="rotate(0,619.5,403.5)"/><rect x="606" y="498" width="27" height="27" transform="rotate(0,619.5,511.5)"/><rect x="606" y="525" width="27" height="27" transform="rotate(0,619.5,538.5)"/><rect x="606" y="579" width="27" height="27" transform="rotate(0,619.5,592.5)"/><rect x="606" y="660" width="27" height="27" transform="rotate(0,619.5,673.5)"/><rect x="606" y="714" width="27" height="27" transform="rotate(0,619.5,727.5)"/><rect x="606" y="741" width="27" height="27" transform="rotate(0,619.5,754.5)"/><rect x="606" y="795" width="27" height="27" transform="rotate(0,619.5,808.5)"/><rect x="606" y="849" width="27" height="27" transform="rotate(0,619.5,862.5)"/><rect x="606" y="903" width="27" height="27" transform="rotate(0,619.5,916.5)"/><rect x="633" y="66" width="27" height="27" transform="rotate(0,646.5,79.5)"/><rect x="633" y="147" width="27" height="27" transform="rotate(0,646.5,160.5)"/><rect x="633" y="282" width="27" height="27" transform="rotate(0,646.5,295.5)"/><rect x="633" y="309" width="27" height="27" transform="rotate(0,646.5,322.5)"/><rect x="633" y="363" width="27" height="27" transform="rotate(0,646.5,376.5)"/><rect x="633" y="417" width="27" height="27" transform="rotate(0,646.5,430.5)"/><rect x="633" y="471" width="27" height="27" transform="rotate(0,646.5,484.5)"/><rect x="633" y="579" width="27" height="27" transform="rotate(0,646.5,592.5)"/><rect x="633" y="687" width="27" height="27" transform="rotate(0,646.5,700.5)"/><rect x="633" y="741" width="27" height="27" transform="rotate(0,646.5,754.5)"/><rect x="633" y="795" width="27" height="27" transform="rotate(0,646.5,808.5)"/><rect x="633" y="822" width="27" height="27" transform="rotate(0,646.5,835.5)"/><rect x="633" y="876" width="27" height="27" transform="rotate(0,646.5,889.5)"/><rect x="633" y="903" width="27" height="27" transform="rotate(0,646.5,916.5)"/><rect x="633" y="930" width="27" height="27" transform="rotate(0,646.5,943.5)"/><rect x="660" y="66" width="27" height="27" transform="rotate(0,673.5,79.5)"/><rect x="660" y="147" width="27" height="27" transform="rotate(0,673.5,160.5)"/><rect x="660" y="174" width="27" height="27" transform="rotate(0,673.5,187.5)"/><rect x="660" y="201" width="27" height="27" transform="rotate(0,673.5,214.5)"/><rect x="660" y="228" width="27" height="27" transform="rotate(0,673.5,241.5)"/><rect x="660" y="255" width="27" height="27" transform="rotate(0,673.5,268.5)"/><rect x="660" y="309" width="27" height="27" transform="rotate(0,673.5,322.5)"/><rect x="660" y="336" width="27" height="27" transform="rotate(0,673.5,349.5)"/><rect x="660" y="390" width="27" height="27" transform="rotate(0,673.5,403.5)"/><rect x="660" y="417" width="27" height="27" transform="rotate(0,673.5,430.5)"/><rect x="660" y="444" width="27" height="27" transform="rotate(0,673.5,457.5)"/><rect x="660" y="471" width="27" height="27" transform="rotate(0,673.5,484.5)"/><rect x="660" y="498" width="27" height="27" transform="rotate(0,673.5,511.5)"/><rect x="660" y="552" width="27" height="27" transform="rotate(0,673.5,565.5)"/><rect x="660" y="606" width="27" height="27" transform="rotate(0,673.5,619.5)"/><rect x="660" y="687" width="27" height="27" transform="rotate(0,673.5,700.5)"/><rect x="660" y="741" width="27" height="27" transform="rotate(0,673.5,754.5)"/><rect x="660" y="768" width="27" height="27" transform="rotate(0,673.5,781.5)"/><rect x="660" y="795" width="27" height="27" transform="rotate(0,673.5,808.5)"/><rect x="660" y="876" width="27" height="27" transform="rotate(0,673.5,889.5)"/><rect x="660" y="903" width="27" height="27" transform="rotate(0,673.5,916.5)"/><rect x="660" y="930" width="27" height="27" transform="rotate(0,673.5,943.5)"/><rect x="687" y="66" width="27" height="27" transform="rotate(0,700.5,79.5)"/><rect x="687" y="147" width="27" height="27" transform="rotate(0,700.5,160.5)"/><rect x="687" y="255" width="27" height="27" transform="rotate(0,700.5,268.5)"/><rect x="687" y="282" width="27" height="27" transform="rotate(0,700.5,295.5)"/><rect x="687" y="309" width="27" height="27" transform="rotate(0,700.5,322.5)"/><rect x="687" y="336" width="27" height="27" transform="rotate(0,700.5,349.5)"/><rect x="687" y="363" width="27" height="27" transform="rotate(0,700.5,376.5)"/><rect x="687" y="390" width="27" height="27" transform="rotate(0,700.5,403.5)"/><rect x="687" y="444" width="27" height="27" transform="rotate(0,700.5,457.5)"/><rect x="687" y="471" width="27" height="27" transform="rotate(0,700.5,484.5)"/><rect x="687" y="498" width="27" height="27" transform="rotate(0,700.5,511.5)"/><rect x="687" y="525" width="27" height="27" transform="rotate(0,700.5,538.5)"/><rect x="687" y="552" width="27" height="27" transform="rotate(0,700.5,565.5)"/><rect x="687" y="579" width="27" height="27" transform="rotate(0,700.5,592.5)"/><rect x="687" y="606" width="27" height="27" transform="rotate(0,700.5,619.5)"/><rect x="687" y="660" width="27" height="27" transform="rotate(0,700.5,673.5)"/><rect x="687" y="687" width="27" height="27" transform="rotate(0,700.5,700.5)"/><rect x="687" y="768" width="27" height="27" transform="rotate(0,700.5,781.5)"/><rect x="687" y="849" width="27" height="27" transform="rotate(0,700.5,862.5)"/><rect x="687" y="876" width="27" height="27" transform="rotate(0,700.5,889.5)"/><rect x="687" y="903" width="27" height="27" transform="rotate(0,700.5,916.5)"/><rect x="687" y="930" width="27" height="27" transform="rotate(0,700.5,943.5)"/><rect x="714" y="66" width="27" height="27" transform="rotate(0,727.5,79.5)"/><rect x="714" y="93" width="27" height="27" transform="rotate(0,727.5,106.5)"/><rect x="714" y="174" width="27" height="27" transform="rotate(0,727.5,187.5)"/><rect x="714" y="228" width="27" height="27" transform="rotate(0,727.5,241.5)"/><rect x="714" y="255" width="27" height="27" transform="rotate(0,727.5,268.5)"/><rect x="714" y="309" width="27" height="27" transform="rotate(0,727.5,322.5)"/><rect x="714" y="390" width="27" height="27" transform="rotate(0,727.5,403.5)"/><rect x="714" y="471" width="27" height="27" transform="rotate(0,727.5,484.5)"/><rect x="714" y="498" width="27" height="27" transform="rotate(0,727.5,511.5)"/><rect x="714" y="525" width="27" height="27" transform="rotate(0,727.5,538.5)"/><rect x="714" y="579" width="27" height="27" transform="rotate(0,727.5,592.5)"/><rect x="714" y="660" width="27" height="27" transform="rotate(0,727.5,673.5)"/><rect x="714" y="687" width="27" height="27" transform="rotate(0,727.5,700.5)"/><rect x="714" y="714" width="27" height="27" transform="rotate(0,727.5,727.5)"/><rect x="714" y="741" width="27" height="27" transform="rotate(0,727.5,754.5)"/><rect x="714" y="768" width="27" height="27" transform="rotate(0,727.5,781.5)"/><rect x="714" y="795" width="27" height="27" transform="rotate(0,727.5,808.5)"/><rect x="714" y="822" width="27" height="27" transform="rotate(0,727.5,835.5)"/><rect x="714" y="903" width="27" height="27" transform="rotate(0,727.5,916.5)"/><rect x="741" y="282" width="27" height="27" transform="rotate(0,754.5,295.5)"/><rect x="741" y="444" width="27" height="27" transform="rotate(0,754.5,457.5)"/><rect x="741" y="471" width="27" height="27" transform="rotate(0,754.5,484.5)"/><rect x="741" y="498" width="27" height="27" transform="rotate(0,754.5,511.5)"/><rect x="741" y="525" width="27" height="27" transform="rotate(0,754.5,538.5)"/><rect x="741" y="552" width="27" height="27" transform="rotate(0,754.5,565.5)"/><rect x="741" y="606" width="27" height="27" transform="rotate(0,754.5,619.5)"/><rect x="741" y="633" width="27" height="27" transform="rotate(0,754.5,646.5)"/><rect x="741" y="660" width="27" height="27" transform="rotate(0,754.5,673.5)"/><rect x="741" y="687" width="27" height="27" transform="rotate(0,754.5,700.5)"/><rect x="741" y="714" width="27" height="27" transform="rotate(0,754.5,727.5)"/><rect x="741" y="822" width="27" height="27" transform="rotate(0,754.5,835.5)"/><rect x="741" y="849" width="27" height="27" transform="rotate(0,754.5,862.5)"/><rect x="741" y="876" width="27" height="27" transform="rotate(0,754.5,889.5)"/><rect x="768" y="309" width="27" height="27" transform="rotate(0,781.5,322.5)"/><rect x="768" y="390" width="27" height="27" transform="rotate(0,781.5,403.5)"/><rect x="768" y="417" width="27" height="27" transform="rotate(0,781.5,430.5)"/><rect x="768" y="498" width="27" height="27" transform="rotate(0,781.5,511.5)"/><rect x="768" y="552" width="27" height="27" transform="rotate(0,781.5,565.5)"/><rect x="768" y="579" width="27" height="27" transform="rotate(0,781.5,592.5)"/><rect x="768" y="606" width="27" height="27" transform="rotate(0,781.5,619.5)"/><rect x="768" y="633" width="27" height="27" transform="rotate(0,781.5,646.5)"/><rect x="768" y="660" width="27" height="27" transform="rotate(0,781.5,673.5)"/><rect x="768" y="687" width="27" height="27" transform="rotate(0,781.5,700.5)"/><rect x="768" y="714" width="27" height="27" transform="rotate(0,781.5,727.5)"/><rect x="768" y="768" width="27" height="27" transform="rotate(0,781.5,781.5)"/><rect x="768" y="822" width="27" height="27" transform="rotate(0,781.5,835.5)"/><rect x="768" y="849" width="27" height="27" transform="rotate(0,781.5,862.5)"/><rect x="768" y="903" width="27" height="27" transform="rotate(0,781.5,916.5)"/><rect x="795" y="282" width="27" height="27" transform="rotate(0,808.5,295.5)"/><rect x="795" y="309" width="27" height="27" transform="rotate(0,808.5,322.5)"/><rect x="795" y="336" width="27" height="27" transform="rotate(0,808.5,349.5)"/><rect x="795" y="417" width="27" height="27" transform="rotate(0,808.5,430.5)"/><rect x="795" y="498" width="27" height="27" transform="rotate(0,808.5,511.5)"/><rect x="795" y="525" width="27" height="27" transform="rotate(0,808.5,538.5)"/><rect x="795" y="579" width="27" height="27" transform="rotate(0,808.5,592.5)"/><rect x="795" y="606" width="27" height="27" transform="rotate(0,808.5,619.5)"/><rect x="795" y="660" width="27" height="27" transform="rotate(0,808.5,673.5)"/><rect x="795" y="714" width="27" height="27" transform="rotate(0,808.5,727.5)"/><rect x="795" y="822" width="27" height="27" transform="rotate(0,808.5,835.5)"/><rect x="795" y="849" width="27" height="27" transform="rotate(0,808.5,862.5)"/><rect x="795" y="876" width="27" height="27" transform="rotate(0,808.5,889.5)"/><rect x="795" y="930" width="27" height="27" transform="rotate(0,808.5,943.5)"/><rect x="822" y="282" width="27" height="27" transform="rotate(0,835.5,295.5)"/><rect x="822" y="309" width="27" height="27" transform="rotate(0,835.5,322.5)"/><rect x="822" y="336" width="27" height="27" transform="rotate(0,835.5,349.5)"/><rect x="822" y="363" width="27" height="27" transform="rotate(0,835.5,376.5)"/><rect x="822" y="390" width="27" height="27" transform="rotate(0,835.5,403.5)"/><rect x="822" y="471" width="27" height="27" transform="rotate(0,835.5,484.5)"/><rect x="822" y="498" width="27" height="27" transform="rotate(0,835.5,511.5)"/><rect x="822" y="606" width="27" height="27" transform="rotate(0,835.5,619.5)"/><rect x="822" y="687" width="27" height="27" transform="rotate(0,835.5,700.5)"/><rect x="822" y="714" width="27" height="27" transform="rotate(0,835.5,727.5)"/><rect x="822" y="741" width="27" height="27" transform="rotate(0,835.5,754.5)"/><rect x="822" y="768" width="27" height="27" transform="rotate(0,835.5,781.5)"/><rect x="822" y="795" width="27" height="27" transform="rotate(0,835.5,808.5)"/><rect x="822" y="822" width="27" height="27" transform="rotate(0,835.5,835.5)"/><rect x="822" y="849" width="27" height="27" transform="rotate(0,835.5,862.5)"/><rect x="822" y="930" width="27" height="27" transform="rotate(0,835.5,943.5)"/><rect x="849" y="282" width="27" height="27" transform="rotate(0,862.5,295.5)"/><rect x="849" y="363" width="27" height="27" transform="rotate(0,862.5,376.5)"/><rect x="849" y="444" width="27" height="27" transform="rotate(0,862.5,457.5)"/><rect x="849" y="471" width="27" height="27" transform="rotate(0,862.5,484.5)"/><rect x="849" y="552" width="27" height="27" transform="rotate(0,862.5,565.5)"/><rect x="849" y="579" width="27" height="27" transform="rotate(0,862.5,592.5)"/><rect x="849" y="606" width="27" height="27" transform="rotate(0,862.5,619.5)"/><rect x="849" y="687" width="27" height="27" transform="rotate(0,862.5,700.5)"/><rect x="849" y="795" width="27" height="27" transform="rotate(0,862.5,808.5)"/><rect x="849" y="876" width="27" height="27" transform="rotate(0,862.5,889.5)"/><rect x="849" y="930" width="27" height="27" transform="rotate(0,862.5,943.5)"/><rect x="876" y="309" width="27" height="27" transform="rotate(0,889.5,322.5)"/><rect x="876" y="390" width="27" height="27" transform="rotate(0,889.5,403.5)"/><rect x="876" y="417" width="27" height="27" transform="rotate(0,889.5,430.5)"/><rect x="876" y="444" width="27" height="27" transform="rotate(0,889.5,457.5)"/><rect x="876" y="498" width="27" height="27" transform="rotate(0,889.5,511.5)"/><rect x="876" y="579" width="27" height="27" transform="rotate(0,889.5,592.5)"/><rect x="876" y="606" width="27" height="27" transform="rotate(0,889.5,619.5)"/><rect x="876" y="633" width="27" height="27" transform="rotate(0,889.5,646.5)"/><rect x="876" y="714" width="27" height="27" transform="rotate(0,889.5,727.5)"/><rect x="876" y="795" width="27" height="27" transform="rotate(0,889.5,808.5)"/><rect x="876" y="822" width="27" height="27" transform="rotate(0,889.5,835.5)"/><rect x="876" y="903" width="27" height="27" transform="rotate(0,889.5,916.5)"/><rect x="876" y="930" width="27" height="27" transform="rotate(0,889.5,943.5)"/><rect x="903" y="282" width="27" height="27" transform="rotate(0,916.5,295.5)"/><rect x="903" y="309" width="27" height="27" transform="rotate(0,916.5,322.5)"/><rect x="903" y="336" width="27" height="27" transform="rotate(0,916.5,349.5)"/><rect x="903" y="363" width="27" height="27" transform="rotate(0,916.5,376.5)"/><rect x="903" y="444" width="27" height="27" transform="rotate(0,916.5,457.5)"/><rect x="903" y="471" width="27" height="27" transform="rotate(0,916.5,484.5)"/><rect x="903" y="525" width="27" height="27" transform="rotate(0,916.5,538.5)"/><rect x="903" y="606" width="27" height="27" transform="rotate(0,916.5,619.5)"/><rect x="903" y="660" width="27" height="27" transform="rotate(0,916.5,673.5)"/><rect x="903" y="687" width="27" height="27" transform="rotate(0,916.5,700.5)"/><rect x="903" y="741" width="27" height="27" transform="rotate(0,916.5,754.5)"/><rect x="903" y="768" width="27" height="27" transform="rotate(0,916.5,781.5)"/><rect x="903" y="876" width="27" height="27" transform="rotate(0,916.5,889.5)"/><rect x="903" y="903" width="27" height="27" transform="rotate(0,916.5,916.5)"/><rect x="903" y="930" width="27" height="27" transform="rotate(0,916.5,943.5)"/><rect x="930" y="390" width="27" height="27" transform="rotate(0,943.5,403.5)"/><rect x="930" y="417" width="27" height="27" transform="rotate(0,943.5,430.5)"/><rect x="930" y="444" width="27" height="27" transform="rotate(0,943.5,457.5)"/><rect x="930" y="552" width="27" height="27" transform="rotate(0,943.5,565.5)"/><rect x="930" y="579" width="27" height="27" transform="rotate(0,943.5,592.5)"/><rect x="930" y="606" width="27" height="27" transform="rotate(0,943.5,619.5)"/><rect x="930" y="660" width="27" height="27" transform="rotate(0,943.5,673.5)"/><rect x="930" y="714" width="27" height="27" transform="rotate(0,943.5,727.5)"/><rect x="930" y="741" width="27" height="27" transform="rotate(0,943.5,754.5)"/><rect x="930" y="822" width="27" height="27" transform="rotate(0,943.5,835.5)"/><rect x="930" y="849" width="27" height="27" transform="rotate(0,943.5,862.5)"/></clipPath><clipPath id="clip-path-corners-square-color-0-0"><rect x="66" y="66" width="27" height="27" transform="rotate(0,79.5,79.5)"/><rect x="66" y="93" width="27" height="27" transform="rotate(0,79.5,106.5)"/><rect x="66" y="120" width="27" height="27" transform="rotate(0,79.5,133.5)"/><rect x="66" y="147" width="27" height="27" transform="rotate(0,79.5,160.5)"/><rect x="66" y="174" width="27" height="27" transform="rotate(0,79.5,187.5)"/><rect x="66" y="201" width="27" height="27" transform="rotate(0,79.5,214.5)"/><rect x="66" y="228" width="27" height="27" transform="rotate(0,79.5,241.5)"/><rect x="93" y="66" width="27" height="27" transform="rotate(0,106.5,79.5)"/><rect x="93" y="228" width="27" height="27" transform="rotate(0,106.5,241.5)"/><rect x="120" y="66" width="27" height="27" transform="rotate(0,133.5,79.5)"/><rect x="120" y="228" width="27" height="27" transform="rotate(0,133.5,241.5)"/><rect x="147" y="66" width="27" height="27" transform="rotate(0,160.5,79.5)"/><rect x="147" y="228" width="27" height="27" transform="rotate(0,160.5,241.5)"/><rect x="174" y="66" width="27" height="27" transform="rotate(0,187.5,79.5)"/><rect x="174" y="228" width="27" height="27" transform="rotate(0,187.5,241.5)"/><rect x="201" y="66" width="27" height="27" transform="rotate(0,214.5,79.5)"/><rect x="201" y="228" width="27" height="27" transform="rotate(0,214.5,241.5)"/><rect x="228" y="66" width="27" height="27" transform="rotate(0,241.5,79.5)"/><rect x="228" y="93" width="27" height="27" transform="rotate(0,241.5,106.5)"/><rect x="228" y="120" width="27" height="27" transform="rotate(0,241.5,133.5)"/><rect x="228" y="147" width="27" height="27" transform="rotate(0,241.5,160.5)"/><rect x="228" y="174" width="27" height="27" transform="rotate(0,241.5,187.5)"/><rect x="228" y="201" width="27" height="27" transform="rotate(0,241.5,214.5)"/><rect x="228" y="228" width="27" height="27" transform="rotate(0,241.5,241.5)"/></clipPath><clipPath id="clip-path-corners-dot-color-0-0"><rect x="120" y="120" width="27" height="27" transform="rotate(0,133.5,133.5)"/><rect x="120" y="147" width="27" height="27" transform="rotate(0,133.5,160.5)"/><rect x="120" y="174" width="27" height="27" transform="rotate(0,133.5,187.5)"/><rect x="147" y="120" width="27" height="27" transform="rotate(0,160.5,133.5)"/><rect x="147" y="147" width="27" height="27" transform="rotate(0,160.5,160.5)"/><rect x="147" y="174" width="27" height="27" transform="rotate(0,160.5,187.5)"/><rect x="174" y="120" width="27" height="27" transform="rotate(0,187.5,133.5)"/><rect x="174" y="147" width="27" height="27" transform="rotate(0,187.5,160.5)"/><rect x="174" y="174" width="27" height="27" transform="rotate(0,187.5,187.5)"/></clipPath><clipPath id="clip-path-corners-square-color-1-0"><rect x="768" y="66" width="27" height="27" transform="rotate(0,781.5,79.5)"/><rect x="768" y="93" width="27" height="27" transform="rotate(0,781.5,106.5)"/><rect x="768" y="120" width="27" height="27" transform="rotate(0,781.5,133.5)"/><rect x="768" y="147" width="27" height="27" transform="rotate(0,781.5,160.5)"/><rect x="768" y="174" width="27" height="27" transform="rotate(0,781.5,187.5)"/><rect x="768" y="201" width="27" height="27" transform="rotate(0,781.5,214.5)"/><rect x="768" y="228" width="27" height="27" transform="rotate(0,781.5,241.5)"/><rect x="795" y="66" width="27" height="27" transform="rotate(0,808.5,79.5)"/><rect x="795" y="228" width="27" height="27" transform="rotate(0,808.5,241.5)"/><rect x="822" y="66" width="27" height="27" transform="rotate(0,835.5,79.5)"/><rect x="822" y="228" width="27" height="27" transform="rotate(0,835.5,241.5)"/><rect x="849" y="66" width="27" height="27" transform="rotate(0,862.5,79.5)"/><rect x="849" y="228" width="27" height="27" transform="rotate(0,862.5,241.5)"/><rect x="876" y="66" width="27" height="27" transform="rotate(0,889.5,79.5)"/><rect x="876" y="228" width="27" height="27" transform="rotate(0,889.5,241.5)"/><rect x="903" y="66" width="27" height="27" transform="rotate(0,916.5,79.5)"/><rect x="903" y="228" width="27" height="27" transform="rotate(0,916.5,241.5)"/><rect x="930" y="66" width="27" height="27" transform="rotate(0,943.5,79.5)"/><rect x="930" y="93" width="27" height="27" transform="rotate(0,943.5,106.5)"/><rect x="930" y="120" width="27" height="27" transform="rotate(0,943.5,133.5)"/><rect x="930" y="147" width="27" height="27" transform="rotate(0,943.5,160.5)"/><rect x="930" y="174" width="27" height="27" transform="rotate(0,943.5,187.5)"/><rect x="930" y="201" width="27" height="27" transform="rotate(0,943.5,214.5)"/><rect x="930" y="228" width="27" height="27" transform="rotate(0,943.5,241.5)"/></clipPath><clipPath id="clip-path-corners-dot-color-1-0"><rect x="822" y="120" width="27" height="27" transform="rotate(0,835.5,133.5)"/><rect x="822" y="147" width="27" height="27" transform="rotate(0,835.5,160.5)"/><rect x="822" y="174" width="27" height="27" transform="rotate(0,835.5,187.5)"/><rect x="849" y="120" width="27" height="27" transform="rotate(0,862.5,133.5)"/><rect x="849" y="147" width="27" height="27" transform="rotate(0,862.5,160.5)"/><rect x="849" y="174" width="27" height="27" transform="rotate(0,862.5,187.5)"/><rect x="876" y="120" width="27" height="27" transform="rotate(0,889.5,133.5)"/><rect x="876" y="147" width="27" height="27" transform="rotate(0,889.5,160.5)"/><rect x="876" y="174" width="27" height="27" transform="rotate(0,889.5,187.5)"/></clipPath><clipPath id="clip-path-corners-square-color-0-1"><rect x="66" y="768" width="27" height="27" transform="rotate(0,79.5,781.5)"/><rect x="66" y="795" width="27" height="27" transform="rotate(0,79.5,808.5)"/><rect x="66" y="822" width="27" height="27" transform="rotate(0,79.5,835.5)"/><rect x="66" y="849" width="27" height="27" transform="rotate(0,79.5,862.5)"/><rect x="66" y="876" width="27" height="27" transform="rotate(0,79.5,889.5)"/><rect x="66" y="903" width="27" height="27" transform="rotate(0,79.5,916.5)"/><rect x="66" y="930" width="27" height="27" transform="rotate(0,79.5,943.5)"/><rect x="93" y="768" width="27" height="27" transform="rotate(0,106.5,781.5)"/><rect x="93" y="930" width="27" height="27" transform="rotate(0,106.5,943.5)"/><rect x="120" y="768" width="27" height="27" transform="rotate(0,133.5,781.5)"/><rect x="120" y="930" width="27" height="27" transform="rotate(0,133.5,943.5)"/><rect x="147" y="768" width="27" height="27" transform="rotate(0,160.5,781.5)"/><rect x="147" y="930" width="27" height="27" transform="rotate(0,160.5,943.5)"/><rect x="174" y="768" width="27" height="27" transform="rotate(0,187.5,781.5)"/><rect x="174" y="930" width="27" height="27" transform="rotate(0,187.5,943.5)"/><rect x="201" y="768" width="27" height="27" transform="rotate(0,214.5,781.5)"/><rect x="201" y="930" width="27" height="27" transform="rotate(0,214.5,943.5)"/><rect x="228" y="768" width="27" height="27" transform="rotate(0,241.5,781.5)"/><rect x="228" y="795" width="27" height="27" transform="rotate(0,241.5,808.5)"/><rect x="228" y="822" width="27" height="27" transform="rotate(0,241.5,835.5)"/><rect x="228" y="849" width="27" height="27" transform="rotate(0,241.5,862.5)"/><rect x="228" y="876" width="27" height="27" transform="rotate(0,241.5,889.5)"/><rect x="228" y="903" width="27" height="27" transform="rotate(0,241.5,916.5)"/><rect x="228" y="930" width="27" height="27" transform="rotate(0,241.5,943.5)"/></clipPath><clipPath id="clip-path-corners-dot-color-0-1"><rect x="120" y="822" width="27" height="27" transform="rotate(0,133.5,835.5)"/><rect x="120" y="849" width="27" height="27" transform="rotate(0,133.5,862.5)"/><rect x="120" y="876" width="27" height="27" transform="rotate(0,133.5,889.5)"/><rect x="147" y="822" width="27" height="27" transform="rotate(0,160.5,835.5)"/><rect x="147" y="849" width="27" height="27" transform="rotate(0,160.5,862.5)"/><rect x="147" y="876" width="27" height="27" transform="rotate(0,160.5,889.5)"/><rect x="174" y="822" width="27" height="27" transform="rotate(0,187.5,835.5)"/><rect x="174" y="849" width="27" height="27" transform="rotate(0,187.5,862.5)"/><rect x="174" y="876" width="27" height="27" transform="rotate(0,187.5,889.5)"/></clipPath></defs><rect x="0" y="0" height="1024" width="1024" clip-path="url('#clip-path-background-color')" fill="#ffffff"/><rect x="66" y="66" height="891" width="891" clip-path="url('#clip-path-dot-color')" fill="#000000"/><rect x="66" y="66" height="189" width="189" clip-path="url('#clip-path-corners-square-color-0-0')" fill="#000000"/><rect x="120" y="120" height="81" width="81" clip-path="url('#clip-path-corners-dot-color-0-0')" fill="#000000"/><rect x="768" y="66" height="189" width="189" clip-path="url('#clip-path-corners-square-color-1-0')" fill="#000000"/><rect x="822" y="120" height="81" width="81" clip-path="url('#clip-path-corners-dot-color-1-0')" fill="#000000"/><rect x="66" y="768" height="189" width="189" clip-path="url('#clip-path-corners-square-color-0-1')" fill="#000000"/><rect x="120" y="822" height="81" width="81" clip-path="url('#clip-path-corners-dot-color-0-1')" fill="#000000"/></svg>